solid lcd-mount
facet normal 0.0 -1.0 0.0
  outer loop
    vertex 222.98874208065342 82.48926774402926 47.87662263537233
    vertex 129.98874208065345 82.48926774402926 47.79131519972718
    vertex 222.98874208065342 82.48926774402926 47.79131519972718
  endloop
endfacet
facet normal 0.0 -1.0 0.0
  outer loop
    vertex 129.98874208065345 82.48926774402926 47.79131519972718
    vertex 222.98874208065342 82.48926774402926 47.87662263537233
    vertex 129.98874208065345 82.48926774402926 53.37662263537233
  endloop
endfacet
facet normal 0.0 -1.0 0.0
  outer loop
    vertex 129.98874208065345 82.48926774402926 53.37662263537233
    vertex 222.98874208065342 82.48926774402926 47.87662263537233
    vertex 222.98874208065342 82.48926774402926 53.37662263537233
  endloop
endfacet
facet normal -0.0007295454125513045 -3.82348623951002e-05 -0.9999997331507576
  outer loop
    vertex 129.98874208065342 85.48926774402923 47.81406216221208
    vertex 120.98874208065342 -80.01073225597077 47.81406216221208
    vertex 120.98874208065342 85.48926774402923 47.81406216221208
  endloop
endfacet
facet normal -0.0007295454125513045 -3.82348623951002e-05 -0.9999997331507576
  outer loop
    vertex 120.98874208065342 -80.01073225597077 47.81406216221208
    vertex 129.98874208065342 85.48926774402923 47.81406216221208
    vertex 129.98874208065342 -80.01073225597077 47.81406216221208
  endloop
endfacet
facet normal -0.0007295454125513045 -3.82348623951002e-05 -0.9999997331507576
  outer loop
    vertex 129.98874208065342 -80.01073225597077 47.81406216221208
    vertex 129.98874208065342 85.48926774402923 47.81406216221208
    vertex 129.98874208065345 82.48926774402926 47.79131519972718
  endloop
endfacet
facet normal 0.0 1.0 0.0
  outer loop
    vertex 120.98874208065342 -80.01073225597077 47.81406216221208
    vertex 222.98874208065342 -80.01073225597077 47.79131519972718
    vertex 120.98874208065342 -80.01073225597077 47.376622635372335
  endloop
endfacet
facet normal 0.0 1.0 0.0
  outer loop
    vertex 222.98874208065342 -80.01073225597077 47.79131519972718
    vertex 120.98874208065342 -80.01073225597077 47.81406216221208
    vertex 129.98874208065342 -80.01073225597077 47.81406216221208
  endloop
endfacet
facet normal 0.0 1.0 0.0
  outer loop
    vertex 222.98874208065342 -80.01073225597077 47.79131519972718
    vertex 129.98874208065342 -80.01073225597077 47.81406216221208
    vertex 222.98874208065342 -80.01073225597077 47.87662263537233
  endloop
endfacet
facet normal 0.0 1.0 0.0
  outer loop
    vertex 222.98874208065342 -80.01073225597077 47.87662263537233
    vertex 129.98874208065342 -80.01073225597077 47.81406216221208
    vertex 129.98874208065342 -80.01073225597077 47.87662263537233
  endloop
endfacet
facet normal 0.0 1.0 0.0
  outer loop
    vertex 120.98874208065342 -80.01073225597077 47.376622635372335
    vertex 228.64874208065342 -80.01073225597077 37.376622635372335
    vertex 120.98874208065342 -80.01073225597077 37.376622635372335
  endloop
endfacet
facet normal 0.0 1.0 0.0
  outer loop
    vertex 228.64874208065342 -80.01073225597077 37.376622635372335
    vertex 120.98874208065342 -80.01073225597077 47.376622635372335
    vertex 228.64874208065342 -80.01073225597077 47.79131519972718
  endloop
endfacet
facet normal 0.0 1.0 0.0
  outer loop
    vertex 228.64874208065342 -80.01073225597077 47.79131519972718
    vertex 120.98874208065342 -80.01073225597077 47.376622635372335
    vertex 222.98874208065342 -80.01073225597077 47.79131519972718
  endloop
endfacet
facet normal -1.0 0.0 0.0
  outer loop
    vertex 222.98874208065342 82.48926774402926 53.37662263537233
    vertex 222.98874208065342 -74.31073225597076 47.87662263537233
    vertex 222.98874208065342 -74.31073225597076 53.37662263537233
  endloop
endfacet
facet normal -1.0 0.0 0.0
  outer loop
    vertex 222.98874208065342 -74.31073225597076 47.87662263537233
    vertex 222.98874208065342 82.48926774402926 53.37662263537233
    vertex 222.98874208065342 82.48926774402926 47.87662263537233
  endloop
endfacet
facet normal 0.0 0.0 -1.0
  outer loop
    vertex 222.98874208065342 -74.31073225597076 47.87662263537233
    vertex 129.98874208065342 -80.01073225597077 47.87662263537233
    vertex 129.98874208065342 -74.31073225597076 47.87662263537233
  endloop
endfacet
facet normal 0.0 0.0 -1.0
  outer loop
    vertex 129.98874208065342 -80.01073225597077 47.87662263537233
    vertex 222.98874208065342 -74.31073225597076 47.87662263537233
    vertex 222.98874208065342 -80.01073225597077 47.87662263537233
  endloop
endfacet
facet normal -1.0 0.0 0.0
  outer loop
    vertex 222.98874208065342 -74.31073225597076 47.87662263537233
    vertex 222.98874208065342 82.48926774402926 47.79131519972718
    vertex 222.98874208065342 -74.3181095120415 47.79131519972718
  endloop
endfacet
facet normal -1.0 0.0 0.0
  outer loop
    vertex 222.98874208065342 82.48926774402926 47.79131519972718
    vertex 222.98874208065342 -74.31073225597076 47.87662263537233
    vertex 222.98874208065342 82.48926774402926 47.87662263537233
  endloop
endfacet
facet normal 0.0 -1.0 0.0
  outer loop
    vertex 120.98874208065342 55.48926774402924 37.376622635372335
    vertex 113.48874208065344 55.48926774402924 28.47662263537234
    vertex 120.98874208065342 55.48926774402924 28.47662263537234
  endloop
endfacet
facet normal 0.0 -1.0 0.0
  outer loop
    vertex 113.48874208065344 55.48926774402924 28.47662263537234
    vertex 120.98874208065342 55.48926774402924 37.376622635372335
    vertex 113.48874208065344 55.48926774402924 47.376622635372335
  endloop
endfacet
facet normal 0.0 -1.0 0.0
  outer loop
    vertex 113.48874208065344 55.48926774402924 47.376622635372335
    vertex 120.98874208065342 55.48926774402924 37.376622635372335
    vertex 120.98874208065342 55.48926774402924 47.376622635372335
  endloop
endfacet
facet normal -1.0 0.0 0.0
  outer loop
    vertex 120.98874208065342 55.48926774402924 37.376622635372335
    vertex 120.98874208065342 -20.510732255970744 28.47662263537234
    vertex 120.98874208065342 -20.510732255970744 37.376622635372335
  endloop
endfacet
facet normal -1.0 0.0 0.0
  outer loop
    vertex 120.98874208065342 -20.510732255970744 28.47662263537234
    vertex 120.98874208065342 55.48926774402924 37.376622635372335
    vertex 120.98874208065342 -20.364331972519484 28.47662263537234
  endloop
endfacet
facet normal -1.0 0.0 0.0
  outer loop
    vertex 120.98874208065342 -20.364331972519484 28.47662263537234
    vertex 120.98874208065342 55.48926774402924 37.376622635372335
    vertex 120.98874208065342 55.48926774402924 28.47662263537234
  endloop
endfacet
facet normal 0.0 0.0 -1.0
  outer loop
    vertex 228.64874208065342 85.48926774402925 47.79131519972718
    vertex 222.98874208065342 82.48926774402926 47.79131519972718
    vertex 222.98874208065342 85.48926774402925 47.79131519972718
  endloop
endfacet
facet normal 0.0 0.0 -1.0
  outer loop
    vertex 222.98874208065342 82.48926774402926 47.79131519972718
    vertex 228.64874208065342 85.48926774402925 47.79131519972718
    vertex 222.98874208065342 -74.3181095120415 47.79131519972718
  endloop
endfacet
facet normal 0.0 0.0 -1.0
  outer loop
    vertex 222.98874208065342 -74.3181095120415 47.79131519972718
    vertex 228.64874208065342 85.48926774402925 47.79131519972718
    vertex 222.98874208065342 -80.01073225597077 47.79131519972718
  endloop
endfacet
facet normal 0.0 0.0 -1.0
  outer loop
    vertex 222.98874208065342 -80.01073225597077 47.79131519972718
    vertex 228.64874208065342 85.48926774402925 47.79131519972718
    vertex 228.64874208065342 -80.01073225597077 47.79131519972718
  endloop
endfacet
facet normal 0.0 0.0 -1.0
  outer loop
    vertex 228.64874208065342 95.95926774402923 28.47662263537234
    vertex 113.48874208065344 55.48926774402924 28.47662263537234
    vertex 113.48874208065344 95.95926774402923 28.47662263537234
  endloop
endfacet
facet normal 0.0 0.0 -1.0
  outer loop
    vertex 113.48874208065344 55.48926774402924 28.47662263537234
    vertex 228.64874208065342 95.95926774402923 28.47662263537234
    vertex 120.98874208065342 55.48926774402924 28.47662263537234
  endloop
endfacet
facet normal 0.0 0.0 -1.0
  outer loop
    vertex 120.98874208065342 55.48926774402924 28.47662263537234
    vertex 228.64874208065342 95.95926774402923 28.47662263537234
    vertex 120.98874208065342 -20.364331972519484 28.47662263537234
  endloop
endfacet
facet normal 0.0 0.0 -1.0
  outer loop
    vertex 120.98874208065342 -20.364331972519484 28.47662263537234
    vertex 228.64874208065342 95.95926774402923 28.47662263537234
    vertex 123.3412206713851 -20.364331972519484 28.47662263537234
  endloop
endfacet
facet normal 0.0 0.0 -1.0
  outer loop
    vertex 123.3412206713851 -20.364331972519484 28.47662263537234
    vertex 228.64874208065342 95.95926774402923 28.47662263537234
    vertex 123.3412206713851 -20.510732255970744 28.47662263537234
  endloop
endfacet
facet normal 0.0 0.0 -1.0
  outer loop
    vertex 120.98874208065342 -20.510732255970744 28.47662263537234
    vertex 113.48874208065344 -86.51073225597077 28.47662263537234
    vertex 113.48874208065344 -20.510732255970744 28.47662263537234
  endloop
endfacet
facet normal 0.0 0.0 -1.0
  outer loop
    vertex 113.48874208065344 -86.51073225597077 28.47662263537234
    vertex 120.98874208065342 -20.510732255970744 28.47662263537234
    vertex 228.64874208065342 -86.51073225597077 28.47662263537234
  endloop
endfacet
facet normal 0.0 0.0 -1.0
  outer loop
    vertex 228.64874208065342 -86.51073225597077 28.47662263537234
    vertex 120.98874208065342 -20.510732255970744 28.47662263537234
    vertex 123.3412206713851 -20.510732255970744 28.47662263537234
  endloop
endfacet
facet normal 0.0 0.0 -1.0
  outer loop
    vertex 228.64874208065342 -86.51073225597077 28.47662263537234
    vertex 123.3412206713851 -20.510732255970744 28.47662263537234
    vertex 228.64874208065342 95.95926774402923 28.47662263537234
  endloop
endfacet
facet normal 1.0 0.0 0.0
  outer loop
    vertex 228.64874208065342 -86.51073225597077 28.47662263537234
    vertex 228.64874208065342 -80.01073225597077 37.376622635372335
    vertex 228.64874208065342 -86.51073225597077 53.37662263537233
  endloop
endfacet
facet normal 1.0 0.0 0.0
  outer loop
    vertex 228.64874208065342 -80.01073225597077 37.376622635372335
    vertex 228.64874208065342 -86.51073225597077 28.47662263537234
    vertex 228.64874208065342 95.95926774402923 28.47662263537234
  endloop
endfacet
facet normal 1.0 0.0 0.0
  outer loop
    vertex 228.64874208065342 -80.01073225597077 37.376622635372335
    vertex 228.64874208065342 95.95926774402923 28.47662263537234
    vertex 228.64874208065342 85.48926774402925 37.376622635372335
  endloop
endfacet
facet normal 1.0 0.0 0.0
  outer loop
    vertex 228.64874208065342 85.48926774402925 37.376622635372335
    vertex 228.64874208065342 95.95926774402923 28.47662263537234
    vertex 228.64874208065342 85.48926774402925 47.79131519972718
  endloop
endfacet
facet normal 1.0 0.0 0.0
  outer loop
    vertex 228.64874208065342 -86.51073225597077 53.37662263537233
    vertex 228.64874208065342 -80.01073225597077 47.79131519972718
    vertex 228.64874208065342 95.95926774402923 53.37662263537233
  endloop
endfacet
facet normal 1.0 0.0 0.0
  outer loop
    vertex 228.64874208065342 -80.01073225597077 47.79131519972718
    vertex 228.64874208065342 -86.51073225597077 53.37662263537233
    vertex 228.64874208065342 -80.01073225597077 37.376622635372335
  endloop
endfacet
facet normal 1.0 0.0 0.0
  outer loop
    vertex 228.64874208065342 95.95926774402923 53.37662263537233
    vertex 228.64874208065342 -80.01073225597077 47.79131519972718
    vertex 228.64874208065342 85.48926774402925 47.79131519972718
  endloop
endfacet
facet normal 1.0 0.0 0.0
  outer loop
    vertex 228.64874208065342 95.95926774402923 53.37662263537233
    vertex 228.64874208065342 85.48926774402925 47.79131519972718
    vertex 228.64874208065342 95.95926774402923 28.47662263537234
  endloop
endfacet
facet normal 0.0 0.0 1.0
  outer loop
    vertex 113.48874208065344 -86.51073225597077 53.37662263537233
    vertex 129.98874208065342 -74.31073225597076 53.37662263537233
    vertex 113.48874208065344 95.95926774402923 53.37662263537233
  endloop
endfacet
facet normal 0.0 0.0 1.0
  outer loop
    vertex 129.98874208065342 -74.31073225597076 53.37662263537233
    vertex 113.48874208065344 -86.51073225597077 53.37662263537233
    vertex 228.64874208065342 -86.51073225597077 53.37662263537233
  endloop
endfacet
facet normal 0.0 0.0 1.0
  outer loop
    vertex 129.98874208065342 -74.31073225597076 53.37662263537233
    vertex 228.64874208065342 -86.51073225597077 53.37662263537233
    vertex 222.98874208065342 -74.31073225597076 53.37662263537233
  endloop
endfacet
facet normal 0.0 0.0 1.0
  outer loop
    vertex 222.98874208065342 -74.31073225597076 53.37662263537233
    vertex 228.64874208065342 -86.51073225597077 53.37662263537233
    vertex 222.98874208065342 82.48926774402926 53.37662263537233
  endloop
endfacet
facet normal 0.0 0.0 1.0
  outer loop
    vertex 113.48874208065344 95.95926774402923 53.37662263537233
    vertex 129.98874208065345 82.48926774402926 53.37662263537233
    vertex 228.64874208065342 95.95926774402923 53.37662263537233
  endloop
endfacet
facet normal 0.0 0.0 1.0
  outer loop
    vertex 129.98874208065345 82.48926774402926 53.37662263537233
    vertex 113.48874208065344 95.95926774402923 53.37662263537233
    vertex 129.98874208065342 -74.31073225597076 53.37662263537233
  endloop
endfacet
facet normal 0.0 0.0 1.0
  outer loop
    vertex 228.64874208065342 95.95926774402923 53.37662263537233
    vertex 129.98874208065345 82.48926774402926 53.37662263537233
    vertex 222.98874208065342 82.48926774402926 53.37662263537233
  endloop
endfacet
facet normal 0.0 0.0 1.0
  outer loop
    vertex 228.64874208065342 95.95926774402923 53.37662263537233
    vertex 222.98874208065342 82.48926774402926 53.37662263537233
    vertex 228.64874208065342 -86.51073225597077 53.37662263537233
  endloop
endfacet
facet normal 0.0 -1.0 0.0
  outer loop
    vertex 228.64874208065342 -86.51073225597077 53.37662263537233
    vertex 113.48874208065344 -86.51073225597077 28.47662263537234
    vertex 228.64874208065342 -86.51073225597077 28.47662263537234
  endloop
endfacet
facet normal 0.0 -1.0 0.0
  outer loop
    vertex 113.48874208065344 -86.51073225597077 28.47662263537234
    vertex 228.64874208065342 -86.51073225597077 53.37662263537233
    vertex 113.48874208065344 -86.51073225597077 53.37662263537233
  endloop
endfacet
facet normal 0.0 1.0 0.0
  outer loop
    vertex 113.48874208065344 95.95926774402923 53.37662263537233
    vertex 228.64874208065342 95.95926774402923 28.47662263537234
    vertex 113.48874208065344 95.95926774402923 28.47662263537234
  endloop
endfacet
facet normal 0.0 1.0 0.0
  outer loop
    vertex 228.64874208065342 95.95926774402923 28.47662263537234
    vertex 113.48874208065344 95.95926774402923 53.37662263537233
    vertex 228.64874208065342 95.95926774402923 53.37662263537233
  endloop
endfacet
facet normal 0.0 0.0 1.0
  outer loop
    vertex 120.98874208065342 -80.51073225597074 47.376622635372335
    vertex 116.98874208065344 -80.01073225597077 47.376622635372335
    vertex 116.98874208065344 -80.51073225597074 47.376622635372335
  endloop
endfacet
facet normal 0.0 0.0 1.0
  outer loop
    vertex 116.98874208065344 -80.01073225597077 47.376622635372335
    vertex 120.98874208065342 -80.51073225597074 47.376622635372335
    vertex 120.98874208065342 -80.01073225597077 47.376622635372335
  endloop
endfacet
facet normal 1.0 0.0 0.0
  outer loop
    vertex 120.98874208065342 85.48926774402925 37.376622635372335
    vertex 120.98874208065342 55.48926774402924 47.376622635372335
    vertex 120.98874208065342 55.48926774402924 37.376622635372335
  endloop
endfacet
facet normal 1.0 0.0 0.0
  outer loop
    vertex 120.98874208065342 55.48926774402924 47.376622635372335
    vertex 120.98874208065342 85.48926774402925 37.376622635372335
    vertex 120.98874208065342 85.48926774402923 47.81406216221208
  endloop
endfacet
facet normal 1.0 0.0 0.0
  outer loop
    vertex 120.98874208065342 -20.510732255970744 37.376622635372335
    vertex 120.98874208065342 -80.01073225597077 47.376622635372335
    vertex 120.98874208065342 -80.01073225597077 37.376622635372335
  endloop
endfacet
facet normal 1.0 0.0 0.0
  outer loop
    vertex 120.98874208065342 -80.01073225597077 47.376622635372335
    vertex 120.98874208065342 -20.510732255970744 37.376622635372335
    vertex 120.98874208065342 -80.01073225597077 47.81406216221208
  endloop
endfacet
facet normal 1.0 0.0 0.0
  outer loop
    vertex 120.98874208065342 -80.01073225597077 47.81406216221208
    vertex 120.98874208065342 -20.510732255970744 37.376622635372335
    vertex 120.98874208065342 -20.510732255970744 47.376622635372335
  endloop
endfacet
facet normal 1.0 0.0 0.0
  outer loop
    vertex 120.98874208065342 -80.01073225597077 47.81406216221208
    vertex 120.98874208065342 -20.510732255970744 47.376622635372335
    vertex 120.98874208065342 85.48926774402923 47.81406216221208
  endloop
endfacet
facet normal 1.0 0.0 0.0
  outer loop
    vertex 120.98874208065342 85.48926774402923 47.81406216221208
    vertex 120.98874208065342 -20.510732255970744 47.376622635372335
    vertex 120.98874208065342 55.48926774402924 47.376622635372335
  endloop
endfacet
facet normal 1.1305019364153239e-16 -1.0 -1.2660274919637034e-15
  outer loop
    vertex 228.64874208065342 85.48926774402925 47.79131519972718
    vertex 120.98874208065342 85.48926774402925 37.376622635372335
    vertex 228.64874208065342 85.48926774402925 37.376622635372335
  endloop
endfacet
facet normal 1.1305019364153239e-16 -1.0 -1.2660274919637034e-15
  outer loop
    vertex 120.98874208065342 85.48926774402925 37.376622635372335
    vertex 228.64874208065342 85.48926774402925 47.79131519972718
    vertex 222.98874208065342 85.48926774402925 47.79131519972718
  endloop
endfacet
facet normal 1.1305019364153239e-16 -1.0 -1.2660274919637034e-15
  outer loop
    vertex 120.98874208065342 85.48926774402925 37.376622635372335
    vertex 222.98874208065342 85.48926774402925 47.79131519972718
    vertex 120.98874208065342 85.48926774402923 47.81406216221208
  endloop
endfacet
facet normal 1.1305019364153239e-16 -1.0 -1.2660274919637034e-15
  outer loop
    vertex 120.98874208065342 85.48926774402923 47.81406216221208
    vertex 222.98874208065342 85.48926774402925 47.79131519972718
    vertex 129.98874208065342 85.48926774402923 47.81406216221208
  endloop
endfacet
facet normal 0.0 0.0 1.0
  outer loop
    vertex 228.64874208065342 -80.01073225597077 37.376622635372335
    vertex 120.98874208065342 -20.510732255970744 37.376622635372335
    vertex 120.98874208065342 -80.01073225597077 37.376622635372335
  endloop
endfacet
facet normal 0.0 0.0 1.0
  outer loop
    vertex 120.98874208065342 -20.510732255970744 37.376622635372335
    vertex 228.64874208065342 -80.01073225597077 37.376622635372335
    vertex 120.98874208065342 55.48926774402924 37.376622635372335
  endloop
endfacet
facet normal 0.0 0.0 1.0
  outer loop
    vertex 120.98874208065342 55.48926774402924 37.376622635372335
    vertex 228.64874208065342 -80.01073225597077 37.376622635372335
    vertex 120.98874208065342 85.48926774402925 37.376622635372335
  endloop
endfacet
facet normal 0.0 0.0 1.0
  outer loop
    vertex 120.98874208065342 85.48926774402925 37.376622635372335
    vertex 228.64874208065342 -80.01073225597077 37.376622635372335
    vertex 228.64874208065342 85.48926774402925 37.376622635372335
  endloop
endfacet
facet normal -1.0 -5.2709716316902624e-18 7.33392995038295e-17
  outer loop
    vertex 113.48874208065344 -86.51073225597077 53.37662263537233
    vertex 113.48874208065344 -20.510732255970744 47.376622635372335
    vertex 113.48874208065344 -86.51073225597077 28.47662263537234
  endloop
endfacet
facet normal -1.0 -5.2709716316902624e-18 7.33392995038295e-17
  outer loop
    vertex 113.48874208065344 -20.510732255970744 47.376622635372335
    vertex 113.48874208065344 -86.51073225597077 53.37662263537233
    vertex 113.48874208065344 95.95926774402923 53.37662263537233
  endloop
endfacet
facet normal -1.0 -5.2709716316902624e-18 7.33392995038295e-17
  outer loop
    vertex 113.48874208065344 -20.510732255970744 47.376622635372335
    vertex 113.48874208065344 95.95926774402923 53.37662263537233
    vertex 113.48874208065344 55.48926774402924 47.376622635372335
  endloop
endfacet
facet normal -1.0 -5.2709716316902624e-18 7.33392995038295e-17
  outer loop
    vertex 113.48874208065344 55.48926774402924 47.376622635372335
    vertex 113.48874208065344 95.95926774402923 53.37662263537233
    vertex 113.48874208065344 55.48926774402924 28.47662263537234
  endloop
endfacet
facet normal -1.0 -5.2709716316902624e-18 7.33392995038295e-17
  outer loop
    vertex 113.48874208065344 55.48926774402924 28.47662263537234
    vertex 113.48874208065344 95.95926774402923 53.37662263537233
    vertex 113.48874208065344 95.95926774402923 28.47662263537234
  endloop
endfacet
facet normal -1.0 -5.2709716316902624e-18 7.33392995038295e-17
  outer loop
    vertex 113.48874208065344 -20.510732255970744 28.47662263537234
    vertex 113.48874208065344 -86.51073225597077 28.47662263537234
    vertex 113.48874208065344 -20.510732255970744 47.376622635372335
  endloop
endfacet
facet normal 1.0 -6.876050477044922e-17 1.4062495805251054e-17
  outer loop
    vertex 129.98874208065345 82.48926774402926 47.79131519972718
    vertex 129.98874208065342 -80.01073225597077 47.87662263537233
    vertex 129.98874208065342 -80.01073225597077 47.81406216221208
  endloop
endfacet
facet normal 1.0 -6.876050477044922e-17 1.4062495805251054e-17
  outer loop
    vertex 129.98874208065342 -80.01073225597077 47.87662263537233
    vertex 129.98874208065345 82.48926774402926 47.79131519972718
    vertex 129.98874208065342 -74.31073225597076 47.87662263537233
  endloop
endfacet
facet normal 1.0 -6.876050477044922e-17 1.4062495805251054e-17
  outer loop
    vertex 129.98874208065342 -74.31073225597076 47.87662263537233
    vertex 129.98874208065345 82.48926774402926 47.79131519972718
    vertex 129.98874208065342 -74.31073225597076 53.37662263537233
  endloop
endfacet
facet normal 1.0 -6.876050477044922e-17 1.4062495805251054e-17
  outer loop
    vertex 129.98874208065342 -74.31073225597076 53.37662263537233
    vertex 129.98874208065345 82.48926774402926 47.79131519972718
    vertex 129.98874208065345 82.48926774402926 53.37662263537233
  endloop
endfacet
facet normal -1.0 0.0 0.0
  outer loop
    vertex 222.98874208065342 -74.31073225597076 47.87662263537233
    vertex 222.98874208065342 -80.01073225597077 47.79131519972718
    vertex 222.98874208065342 -80.01073225597077 47.87662263537233
  endloop
endfacet
facet normal -1.0 0.0 0.0
  outer loop
    vertex 222.98874208065342 -80.01073225597077 47.79131519972718
    vertex 222.98874208065342 -74.31073225597076 47.87662263537233
    vertex 222.98874208065342 -74.3181095120415 47.79131519972718
  endloop
endfacet
facet normal 0.0 1.0 0.0
  outer loop
    vertex 129.98874208065342 -74.31073225597076 53.37662263537233
    vertex 222.98874208065342 -74.31073225597076 47.87662263537233
    vertex 129.98874208065342 -74.31073225597076 47.87662263537233
  endloop
endfacet
facet normal 0.0 1.0 0.0
  outer loop
    vertex 222.98874208065342 -74.31073225597076 47.87662263537233
    vertex 129.98874208065342 -74.31073225597076 53.37662263537233
    vertex 222.98874208065342 -74.31073225597076 53.37662263537233
  endloop
endfacet
facet normal 0.0 0.0 1.0
  outer loop
    vertex 120.98874208065342 -20.510732255970744 47.376622635372335
    vertex 113.48874208065344 55.48926774402924 47.376622635372335
    vertex 113.48874208065344 -20.510732255970744 47.376622635372335
  endloop
endfacet
facet normal 0.0 0.0 1.0
  outer loop
    vertex 113.48874208065344 55.48926774402924 47.376622635372335
    vertex 120.98874208065342 -20.510732255970744 47.376622635372335
    vertex 120.98874208065342 55.48926774402924 47.376622635372335
  endloop
endfacet
facet normal 0.0 -1.0 0.0
  outer loop
    vertex 120.98874208065342 -20.510732255970744 37.376622635372335
    vertex 113.48874208065344 -20.510732255970744 28.47662263537234
    vertex 120.98874208065342 -20.510732255970744 28.47662263537234
  endloop
endfacet
facet normal 0.0 -1.0 0.0
  outer loop
    vertex 113.48874208065344 -20.510732255970744 28.47662263537234
    vertex 120.98874208065342 -20.510732255970744 37.376622635372335
    vertex 113.48874208065344 -20.510732255970744 47.376622635372335
  endloop
endfacet
facet normal 0.0 -1.0 0.0
  outer loop
    vertex 113.48874208065344 -20.510732255970744 47.376622635372335
    vertex 120.98874208065342 -20.510732255970744 37.376622635372335
    vertex 120.98874208065342 -20.510732255970744 47.376622635372335
  endloop
endfacet
facet normal 0.0 0.0 -1.0
  outer loop
    vertex 123.3412206713851 -20.364331972519484 28.47662263537234
    vertex 120.98874208065342 -20.510732255970744 28.47662263537234
    vertex 120.98874208065342 -20.364331972519484 28.47662263537234
  endloop
endfacet
facet normal 0.0 0.0 -1.0
  outer loop
    vertex 120.98874208065342 -20.510732255970744 28.47662263537234
    vertex 123.3412206713851 -20.364331972519484 28.47662263537234
    vertex 123.3412206713851 -20.510732255970744 28.47662263537234
  endloop
endfacet
facet normal -0.00012229461745531396 0.0037911331411147236 -0.9999928061508908
  outer loop
    vertex 222.98874208065342 85.48926774402925 47.79131519972718
    vertex 129.98874208065345 82.48926774402926 47.79131519972718
    vertex 129.98874208065342 85.48926774402923 47.81406216221208
  endloop
endfacet
facet normal -0.00012229461745531396 0.0037911331411147236 -0.9999928061508908
  outer loop
    vertex 129.98874208065345 82.48926774402926 47.79131519972718
    vertex 222.98874208065342 85.48926774402925 47.79131519972718
    vertex 222.98874208065342 82.48926774402926 47.79131519972718
  endloop
endfacet
endsolid lcd-mount
