solid lcd-mount
facet normal 0.0 0.0 -1.0
  outer loop
    vertex 225.24122067138515 46.24629031232686 14.499999999999996
    vertex 128.8453010095502 41.46897739167198 14.499999999999996
    vertex 128.8453010095502 46.24629031232686 14.499999999999996
  endloop
endfacet
facet normal 0.0 0.0 -1.0
  outer loop
    vertex 128.8453010095502 41.46897739167198 14.499999999999996
    vertex 225.24122067138515 46.24629031232686 14.499999999999996
    vertex 219.74530100955022 41.46897739167198 14.499999999999996
  endloop
endfacet
facet normal 0.0 0.0 -1.0
  outer loop
    vertex 219.74530100955022 41.46897739167198 14.499999999999996
    vertex 225.24122067138515 46.24629031232686 14.499999999999996
    vertex 219.74530100955022 -36.33102260832801 14.499999999999996
  endloop
endfacet
facet normal 0.0 0.0 -1.0
  outer loop
    vertex 127.84530100955021 -20.5901998232685 14.499999999999996
    vertex 123.3412206713851 -41.87370968767314 14.499999999999996
    vertex 123.3412206713851 -20.5901998232685 14.499999999999996
  endloop
endfacet
facet normal 0.0 0.0 -1.0
  outer loop
    vertex 123.3412206713851 -41.87370968767314 14.499999999999996
    vertex 127.84530100955021 -20.5901998232685 14.499999999999996
    vertex 127.84530100955021 -36.33102260832801 14.499999999999996
  endloop
endfacet
facet normal 0.0 0.0 -1.0
  outer loop
    vertex 123.3412206713851 -41.87370968767314 14.499999999999996
    vertex 127.84530100955021 -36.33102260832801 14.499999999999996
    vertex 225.24122067138515 -41.87370968767314 14.499999999999996
  endloop
endfacet
facet normal 0.0 0.0 -1.0
  outer loop
    vertex 225.24122067138515 -41.87370968767314 14.499999999999996
    vertex 127.84530100955021 -36.33102260832801 14.499999999999996
    vertex 219.74530100955022 -36.33102260832801 14.499999999999996
  endloop
endfacet
facet normal 0.0 0.0 -1.0
  outer loop
    vertex 225.24122067138515 -41.87370968767314 14.499999999999996
    vertex 219.74530100955022 -36.33102260832801 14.499999999999996
    vertex 225.24122067138515 46.24629031232686 14.499999999999996
  endloop
endfacet
facet normal 0.0 -1.0 0.0
  outer loop
    vertex 225.24122067138515 -41.87370968767314 28.999999999999993
    vertex 123.3412206713851 -41.87370968767314 14.499999999999996
    vertex 225.24122067138515 -41.87370968767314 14.499999999999996
  endloop
endfacet
facet normal 0.0 -1.0 0.0
  outer loop
    vertex 123.3412206713851 -41.87370968767314 14.499999999999996
    vertex 225.24122067138515 -41.87370968767314 28.999999999999993
    vertex 123.3412206713851 -41.87370968767314 28.47662263537234
  endloop
endfacet
facet normal 0.0 -1.0 0.0
  outer loop
    vertex 123.3412206713851 -41.87370968767314 28.47662263537234
    vertex 225.24122067138515 -41.87370968767314 28.999999999999993
    vertex 123.3412206713851 -41.87370968767314 28.999999999999993
  endloop
endfacet
facet normal 1.0 0.0 0.0
  outer loop
    vertex 225.24122067138515 46.24629031232686 14.499999999999996
    vertex 225.24122067138515 -41.87370968767314 28.999999999999993
    vertex 225.24122067138515 -41.87370968767314 14.499999999999996
  endloop
endfacet
facet normal 1.0 0.0 0.0
  outer loop
    vertex 225.24122067138515 -41.87370968767314 28.999999999999993
    vertex 225.24122067138515 46.24629031232686 14.499999999999996
    vertex 225.24122067138515 46.24629031232686 28.999999999999993
  endloop
endfacet
facet normal 1.0 0.0 0.0
  outer loop
    vertex 225.24122067138515 46.24629031232686 28.999999999999993
    vertex 225.24122067138515 46.24629031232686 14.499999999999996
    vertex 225.24122067138515 46.24629031232686 28.47662263537234
  endloop
endfacet
facet normal 0.0 -1.0 0.0
  outer loop
    vertex 219.74530100955022 41.46897739167198 28.47662263537234
    vertex 128.8453010095502 41.46897739167198 14.499999999999996
    vertex 219.74530100955022 41.46897739167198 14.499999999999996
  endloop
endfacet
facet normal 0.0 -1.0 0.0
  outer loop
    vertex 128.8453010095502 41.46897739167198 14.499999999999996
    vertex 219.74530100955022 41.46897739167198 28.47662263537234
    vertex 128.8453010095502 41.46897739167198 28.47662263537234
  endloop
endfacet
facet normal 0.0 1.0 0.0
  outer loop
    vertex 128.8453010095502 46.24629031232686 28.47662263537234
    vertex 225.24122067138515 46.24629031232686 14.499999999999996
    vertex 128.8453010095502 46.24629031232686 14.499999999999996
  endloop
endfacet
facet normal 0.0 1.0 0.0
  outer loop
    vertex 225.24122067138515 46.24629031232686 14.499999999999996
    vertex 128.8453010095502 46.24629031232686 28.47662263537234
    vertex 225.24122067138515 46.24629031232686 28.47662263537234
  endloop
endfacet
facet normal -1.0 0.0 0.0
  outer loop
    vertex 128.8453010095502 46.24629031232686 28.47662263537234
    vertex 128.8453010095502 41.46897739167198 14.499999999999996
    vertex 128.8453010095502 41.46897739167198 28.47662263537234
  endloop
endfacet
facet normal -1.0 0.0 0.0
  outer loop
    vertex 128.8453010095502 41.46897739167198 14.499999999999996
    vertex 128.8453010095502 46.24629031232686 28.47662263537234
    vertex 128.8453010095502 46.24629031232686 14.499999999999996
  endloop
endfacet
facet normal -1.0 0.0 0.0
  outer loop
    vertex 123.3412206713851 -20.59019982326849 28.47662263537234
    vertex 123.3412206713851 -41.87370968767314 14.499999999999996
    vertex 123.3412206713851 -41.87370968767314 28.47662263537234
  endloop
endfacet
facet normal -1.0 0.0 0.0
  outer loop
    vertex 123.3412206713851 -41.87370968767314 14.499999999999996
    vertex 123.3412206713851 -20.59019982326849 28.47662263537234
    vertex 123.3412206713851 -20.5901998232685 14.499999999999996
  endloop
endfacet
facet normal 0.0 1.0 -4.035261673891179e-16
  outer loop
    vertex 123.3412206713851 -20.59019982326849 28.47662263537234
    vertex 127.84530100955021 -20.5901998232685 14.499999999999996
    vertex 123.3412206713851 -20.5901998232685 14.499999999999996
  endloop
endfacet
facet normal 0.0 1.0 -4.035261673891179e-16
  outer loop
    vertex 127.84530100955021 -20.5901998232685 14.499999999999996
    vertex 123.3412206713851 -20.59019982326849 28.47662263537234
    vertex 127.84530100955021 -20.59019982326849 28.47662263537234
  endloop
endfacet
facet normal 0.0 1.0 0.0
  outer loop
    vertex 127.84530100955021 -36.33102260832801 28.47662263537234
    vertex 219.74530100955022 -36.33102260832801 14.499999999999996
    vertex 127.84530100955021 -36.33102260832801 14.499999999999996
  endloop
endfacet
facet normal 0.0 1.0 0.0
  outer loop
    vertex 219.74530100955022 -36.33102260832801 14.499999999999996
    vertex 127.84530100955021 -36.33102260832801 28.47662263537234
    vertex 219.74530100955022 -36.33102260832801 28.47662263537234
  endloop
endfacet
facet normal 1.0 0.0 0.0
  outer loop
    vertex 127.84530100955021 -20.5901998232685 14.499999999999996
    vertex 127.84530100955021 -36.33102260832801 28.47662263537234
    vertex 127.84530100955021 -36.33102260832801 14.499999999999996
  endloop
endfacet
facet normal 1.0 0.0 0.0
  outer loop
    vertex 127.84530100955021 -36.33102260832801 28.47662263537234
    vertex 127.84530100955021 -20.5901998232685 14.499999999999996
    vertex 127.84530100955021 -20.59019982326849 28.47662263537234
  endloop
endfacet
facet normal -1.0 0.0 0.0
  outer loop
    vertex 219.74530100955022 41.46897739167198 28.47662263537234
    vertex 219.74530100955022 -36.33102260832801 14.499999999999996
    vertex 219.74530100955022 -36.33102260832801 28.47662263537234
  endloop
endfacet
facet normal -1.0 0.0 0.0
  outer loop
    vertex 219.74530100955022 -36.33102260832801 14.499999999999996
    vertex 219.74530100955022 41.46897739167198 28.47662263537234
    vertex 219.74530100955022 41.46897739167198 14.499999999999996
  endloop
endfacet
endsolid lcd-mount
